<svg viewBox="0 0 100 100" xmlns="http://www.w3.org/2000/svg" shape-rendering="crispEdges">
  <g class="mascot-body">
    <rect x="32" y="20" width="4" height="10" fill="currentColor" />
    <rect x="64" y="20" width="4" height="10" fill="currentColor" />
    <g class="mascot-eyes">
      <rect x="26" y="10" width="14" height="12" fill="var(--bg)" />
      <rect x="60" y="10" width="14" height="12" fill="var(--bg)" />
      <rect x="30" y="14" width="6" height="6" fill="var(--fg)" />
      <rect x="64" y="14" width="6" height="6" fill="var(--fg)" />
    </g>
    <rect x="22" y="28" width="56" height="6" fill="currentColor" />
    <rect x="14" y="34" width="72" height="20" fill="currentColor" />
    <rect x="22" y="54" width="56" height="6" fill="currentColor" />
    <rect x="20" y="36" width="6" height="4" fill="var(--bg)" opacity="0.4" />
    <rect x="30" y="36" width="3" height="3" fill="var(--bg)" opacity="0.3" />
    <rect x="42" y="48" width="14" height="2" fill="var(--fg)" opacity="0.5" />
    <rect x="6" y="40" width="10" height="8" fill="currentColor" />
    <rect x="0" y="34" width="12" height="6" fill="currentColor" />
    <rect x="0" y="46" width="12" height="6" fill="currentColor" />
    <rect x="84" y="40" width="10" height="8" fill="currentColor" />
    <rect x="88" y="34" width="12" height="6" fill="currentColor" />
    <rect x="88" y="46" width="12" height="6" fill="currentColor" />
    <rect x="22" y="60" width="4" height="6" fill="currentColor" />
    <rect x="20" y="64" width="4" height="6" fill="currentColor" />
    <rect x="32" y="60" width="4" height="6" fill="currentColor" />
    <rect x="30" y="64" width="4" height="4" fill="currentColor" />
    <rect x="64" y="60" width="4" height="6" fill="currentColor" />
    <rect x="66" y="64" width="4" height="4" fill="currentColor" />
    <rect x="74" y="60" width="4" height="6" fill="currentColor" />
    <rect x="76" y="64" width="4" height="6" fill="currentColor" />
  </g>
  <g class="mascot-accent">
    <rect x="42" y="38" width="16" height="12" fill="var(--bg)" />
    <rect x="40" y="40" width="2" height="8" fill="var(--bg)" />
    <rect x="58" y="40" width="2" height="8" fill="var(--bg)" />
    <rect x="48" y="40" width="4" height="4" fill="oklch(0.62 0.22 25)" />
    <rect x="48" y="44" width="4" height="4" fill="var(--fg)" />
  </g>
</svg>
